name ./resultDataOpenSim/trcMotMarkerGrf/sub09/grf-15-07.mot
datacolumns 19
datarows 27
range 0.46800000 0.57200000
endheader

                time	     ground_force_vx	     ground_force_vy	     ground_force_vz	     ground_force_px	     ground_force_py	     ground_force_pz	   l_ground_force_vx	   l_ground_force_vy	   l_ground_force_vz	   l_ground_force_px	   l_ground_force_py	   l_ground_force_pz	     ground_torque_x	     ground_torque_y	     ground_torque_z	   l_ground_torque_x	   l_ground_torque_y	   l_ground_torque_z	
          0.46800000	         42.02204221	        407.66811526	        -21.00374523	         -0.69048243	          0.00000000	          0.09453582	          0.00000000	          0.00000000	          0.00000000	          0.00000000	          0.00000000	          0.00000000	          0.00000000	          3.11612328	          0.00000000	          0.00000000	          0.00000000	          0.00000000	
          0.47200000	         46.39422845	        417.87808483	        -23.69462728	         -0.68902486	          0.00000000	          0.09531984	          0.00000000	          0.00000000	          0.00000000	          0.00000000	          0.00000000	          0.00000000	          0.00000000	          3.20359428	          0.00000000	          0.00000000	          0.00000000	          0.00000000	
          0.47600000	         50.86403409	        428.66432716	        -25.74819868	         -0.68757192	          0.00000000	          0.09597118	          0.00000000	          0.00000000	          0.00000000	          0.00000000	          0.00000000	          0.00000000	          0.00000000	          3.40451050	          0.00000000	          0.00000000	          0.00000000	          0.00000000	
          0.48000000	         55.17546374	        439.90196513	        -27.08230430	         -0.68603907	          0.00000000	          0.09652571	          0.00000000	          0.00000000	          0.00000000	          0.00000000	          0.00000000	          0.00000000	          0.00000000	          3.72851921	          0.00000000	          0.00000000	          0.00000000	          0.00000000	
          0.48400000	         59.11630156	        451.39051849	        -27.77276324	         -0.68423398	          0.00000000	          0.09706399	          0.00000000	          0.00000000	          0.00000000	          0.00000000	          0.00000000	          0.00000000	          0.00000000	          4.16107645	          0.00000000	          0.00000000	          0.00000000	          0.00000000	
          0.48800000	         62.57210888	        463.08356466	        -28.03297587	         -0.68205940	          0.00000000	          0.09761791	          0.00000000	          0.00000000	          0.00000000	          0.00000000	          0.00000000	          0.00000000	          0.00000000	          4.66345380	          0.00000000	          0.00000000	          0.00000000	          0.00000000	
          0.49200000	         65.58967822	        475.16677151	        -28.14757542	         -0.67968117	          0.00000000	          0.09813062	          0.00000000	          0.00000000	          0.00000000	          0.00000000	          0.00000000	          0.00000000	          0.00000000	          5.17822782	          0.00000000	          0.00000000	          0.00000000	          0.00000000	
          0.49600000	         68.35184005	        487.87518172	        -28.42470773	         -0.67738014	          0.00000000	          0.09852666	          0.00000000	          0.00000000	          0.00000000	          0.00000000	          0.00000000	          0.00000000	          0.00000000	          5.63938936	          0.00000000	          0.00000000	          0.00000000	          0.00000000	
          0.50000000	         71.05797323	        501.25184084	        -29.15923221	         -0.67526533	          0.00000000	          0.09880535	          0.00000000	          0.00000000	          0.00000000	          0.00000000	          0.00000000	          0.00000000	          0.00000000	          5.98536770	          0.00000000	          0.00000000	          0.00000000	          0.00000000	
          0.50400000	         73.83865658	        515.10078465	        -30.57084321	         -0.67316488	          0.00000000	          0.09904034	          0.00000000	          0.00000000	          0.00000000	          0.00000000	          0.00000000	          0.00000000	          0.00000000	          6.17239725	          0.00000000	          0.00000000	          0.00000000	          0.00000000	
          0.50800000	         76.75102168	        529.19874687	        -32.73154601	         -0.67087077	          0.00000000	          0.09929954	          0.00000000	          0.00000000	          0.00000000	          0.00000000	          0.00000000	          0.00000000	          0.00000000	          6.18492572	          0.00000000	          0.00000000	          0.00000000	          0.00000000	
          0.51200000	         79.78879651	        543.55653147	        -35.50347893	         -0.66844280	          0.00000000	          0.09954969	          0.00000000	          0.00000000	          0.00000000	          0.00000000	          0.00000000	          0.00000000	          0.00000000	          6.03998869	          0.00000000	          0.00000000	          0.00000000	          0.00000000	
          0.51600000	         82.87588642	        558.41174085	        -38.53172650	         -0.66612523	          0.00000000	          0.09968003	          0.00000000	          0.00000000	          0.00000000	          0.00000000	          0.00000000	          0.00000000	          0.00000000	          5.78404518	          0.00000000	          0.00000000	          0.00000000	          0.00000000	
          0.52000000	         85.87447102	        573.92835475	        -41.33780673	         -0.66406903	          0.00000000	          0.09961052	          0.00000000	          0.00000000	          0.00000000	          0.00000000	          0.00000000	          0.00000000	          0.00000000	          5.48303793	          0.00000000	          0.00000000	          0.00000000	          0.00000000	
          0.52400000	         88.63843335	        589.96072510	        -43.46451238	         -0.66218615	          0.00000000	          0.09935087	          0.00000000	          0.00000000	          0.00000000	          0.00000000	          0.00000000	          0.00000000	          0.00000000	          5.20833340	          0.00000000	          0.00000000	          0.00000000	          0.00000000	
          0.52800000	         91.10527053	        606.15042825	        -44.58392155	         -0.66030883	          0.00000000	          0.09895606	          0.00000000	          0.00000000	          0.00000000	          0.00000000	          0.00000000	          0.00000000	          0.00000000	          5.02192694	          0.00000000	          0.00000000	          0.00000000	          0.00000000	
          0.53200000	         93.37519470	        622.20155946	        -44.54193280	         -0.65840470	          0.00000000	          0.09845792	          0.00000000	          0.00000000	          0.00000000	          0.00000000	          0.00000000	          0.00000000	          0.00000000	          4.96391551	          0.00000000	          0.00000000	          0.00000000	          0.00000000	
          0.53600000	         95.71013306	        638.00388685	        -43.36647404	         -0.65660610	          0.00000000	          0.09785859	          0.00000000	          0.00000000	          0.00000000	          0.00000000	          0.00000000	          0.00000000	          0.00000000	          5.04449895	          0.00000000	          0.00000000	          0.00000000	          0.00000000	
          0.54000000	         98.44382184	        653.50828817	        -41.25616741	         -0.65504381	          0.00000000	          0.09716736	          0.00000000	          0.00000000	          0.00000000	          0.00000000	          0.00000000	          0.00000000	          0.00000000	          5.24211690	          0.00000000	          0.00000000	          0.00000000	          0.00000000	
          0.54400000	        101.87058112	        668.55988783	        -38.53443500	         -0.65371897	          0.00000000	          0.09642538	          0.00000000	          0.00000000	          0.00000000	          0.00000000	          0.00000000	          0.00000000	          0.00000000	          5.50846933	          0.00000000	          0.00000000	          0.00000000	          0.00000000	
          0.54800000	        106.17793772	        682.90687739	        -35.57193489	         -0.65252740	          0.00000000	          0.09569009	          0.00000000	          0.00000000	          0.00000000	          0.00000000	          0.00000000	          0.00000000	          0.00000000	          5.77974361	          0.00000000	          0.00000000	          0.00000000	          0.00000000	
          0.55200000	        111.42771993	        696.35713794	        -32.71462022	         -0.65138516	          0.00000000	          0.09499426	          0.00000000	          0.00000000	          0.00000000	          0.00000000	          0.00000000	          0.00000000	          0.00000000	          5.99162652	          0.00000000	          0.00000000	          0.00000000	          0.00000000	
          0.55600000	        117.55275342	        708.87051609	        -30.23877911	         -0.65030632	          0.00000000	          0.09433046	          0.00000000	          0.00000000	          0.00000000	          0.00000000	          0.00000000	          0.00000000	          0.00000000	          6.09440259	          0.00000000	          0.00000000	          0.00000000	          0.00000000	
          0.56000000	        124.35497130	        720.47914825	        -28.31616155	         -0.64934408	          0.00000000	          0.09367648	          0.00000000	          0.00000000	          0.00000000	          0.00000000	          0.00000000	          0.00000000	          0.00000000	          6.06430491	          0.00000000	          0.00000000	          0.00000000	          0.00000000	
          0.56400000	        131.52825447	        731.15275008	        -26.98130882	         -0.64848942	          0.00000000	          0.09302262	          0.00000000	          0.00000000	          0.00000000	          0.00000000	          0.00000000	          0.00000000	          0.00000000	          5.90835723	          0.00000000	          0.00000000	          0.00000000	          0.00000000	
          0.56800000	        138.72868586	        740.75838005	        -26.12321836	         -0.64766909	          0.00000000	          0.09237131	          0.00000000	          0.00000000	          0.00000000	          0.00000000	          0.00000000	          0.00000000	          0.00000000	          5.66178828	          0.00000000	          0.00000000	          0.00000000	          0.00000000	
          0.57200000	        145.67296264	        749.10846884	        -25.51083947	         -0.64683000	          0.00000000	          0.09172033	          0.00000000	          0.00000000	          0.00000000	          0.00000000	          0.00000000	          0.00000000	          0.00000000	          5.37908539	          0.00000000	          0.00000000	          0.00000000	          0.00000000	
